<svg preserveAspectRatio="none" viewBox="0 0 44 44" xmlns="http://www.w3.org/2000/svg"><path d="m43.646 21.013-11.244-11.244c-.797-.798-2.26-.295-2.26.913v5.673h-16.242v-5.663c.037-1.107-1.421-1.753-2.26-.913l-11.244 11.243c-.525.525-.53 1.388 0 1.918l11.198 11.198c.955.955 2.348-.004 2.26-.912v-5.672l16.237.096.006 5.668c.055 1.207 1.461 1.711 2.26.914l11.244-11.245c.524-.526.524-1.394.045-1.974zm-10.861 9.035.006-3.85c-.006-.771-.582-1.348-1.348-1.348h-18.935c-.725.05-1.347.673-1.347 1.346v3.846l-8.024-8.025 8.07-8.07v3.847c.005.752.461 1.347 1.347 1.347l18.886.051c.77-.005 1.346-.581 1.346-1.347v-3.846l8.025 8.024z" fill="#7aff00"/></svg>
